<svg width="200" height="200" viewBox="0 0 200 200" fill="none" xmlns="http://www.w3.org/2000/svg">
<path d="M34 59.3198V160.46C34 166.72 38.26 172.98 46.56 177.78C63.22 187.4 90.16 187.44 106.72 177.78C115.04 172.98 119.14 166.68 119.08 160.36V59.3198" stroke="#9E9EA0" stroke-width="2" stroke-linecap="round" stroke-linejoin="round"/>
<path d="M106.54 42C123.22 51.62 123.3 67.18 106.74 76.74C90.18 86.3 63.22 86.26 46.56 76.74C29.9 67.22 29.8 51.56 46.36 42" stroke="#9E9EA0" stroke-width="2" stroke-linecap="round" stroke-linejoin="round"/>
<path d="M49.14 65.1398C42.28 58.2198 43.94 49.2998 54.16 43.4398C66.46 36.3998 86.42 36.4398 98.78 43.4398C111.14 50.4398 111.22 61.9598 98.92 68.9998C90.38 73.9198 78.08 75.3798 67.24 73.4198" stroke="#9E9EA0" stroke-width="2" stroke-linecap="round" stroke-linejoin="round"/>
<path d="M74.46 58.1798C78.2244 58.6155 82.0333 57.9192 85.4 56.1798C90.3 53.3798 90.26 48.8198 85.4 45.9998C82.645 44.6139 79.6039 43.8921 76.52 43.8921C73.4361 43.8921 70.395 44.6139 67.64 45.9998C66.7075 46.4244 65.8913 47.068 65.2611 47.8759C64.6308 48.6838 64.205 49.632 64.02 50.6398V58.4598C64.1344 59.5521 64.5323 60.5956 65.1743 61.4867C65.8163 62.3778 66.6801 63.0855 67.68 63.5398C70.4287 64.9347 73.4676 65.6617 76.55 65.6617C79.6324 65.6617 82.6713 64.9347 85.42 63.5398C86.4235 63.0929 87.2897 62.3867 87.9295 61.4938C88.5693 60.6009 88.9595 59.5536 89.06 58.4598V58.4598V51.4598" stroke="#9E9EA0" stroke-width="2" stroke-linecap="round" stroke-linejoin="round"/>
<path d="M85.14 170.8C91.9137 170.107 98.5136 168.232 104.64 165.26V90.1401C98.5148 93.1187 91.915 95.0005 85.14 95.7001V170.8Z" stroke="#9E9EA0" stroke-width="2" stroke-linecap="round" stroke-linejoin="round"/>
<path d="M104.64 146.06C98.5136 149.032 91.9137 150.907 85.14 151.6" stroke="#9E9EA0" stroke-width="2" stroke-linecap="round" stroke-linejoin="round"/>
<path d="M85.14 134.46C91.9155 133.776 98.517 131.901 104.64 128.92" stroke="#9E9EA0" stroke-width="2" stroke-linecap="round" stroke-linejoin="round"/>
<path d="M85.14 115.32C91.9137 114.626 98.5136 112.751 104.64 109.78" stroke="#9E9EA0" stroke-width="2" stroke-linecap="round" stroke-linejoin="round"/>
<path fill-rule="evenodd" clip-rule="evenodd" d="M162.68 16L142.08 27.88L130.38 68.68L144.3 60.66L132.58 102.1L169.36 32.06L152.1 42.02L162.68 16Z" stroke="#9E9EA0" stroke-width="2" stroke-linecap="round" stroke-linejoin="round"/>
</svg>
