<svg width="200" height="200" viewBox="0 0 200 200" fill="none" xmlns="http://www.w3.org/2000/svg">
<path d="M68.94 155.78L50.68 165.8L78.08 181.9L105.48 166.18L92.9 159.1" stroke="#9E9EA0" stroke-width="2" stroke-linecap="round" stroke-linejoin="round"/>
<path d="M68.94 126.96V165.72L78.38 171.22L87.24 165.72V149.08" stroke="#9E9EA0" stroke-width="2" stroke-linecap="round" stroke-linejoin="round"/>
<path d="M78.18 134.72L78.38 171.22" stroke="#9E9EA0" stroke-width="2" stroke-linecap="round" stroke-linejoin="round"/>
<path d="M124.46 134.16L142.5 144.74L169.9 129.04L157.34 121.96" stroke="#9E9EA0" stroke-width="2" stroke-linecap="round" stroke-linejoin="round"/>
<path d="M134.12 129.02L142.78 134.08L151.66 128.56V117.8" stroke="#9E9EA0" stroke-width="2" stroke-linecap="round" stroke-linejoin="round"/>
<path d="M142.72 123.16L142.78 134.08" stroke="#9E9EA0" stroke-width="2" stroke-linecap="round" stroke-linejoin="round"/>
<path d="M21.52 87.1602L23.1 107.44L54.96 128.06L66.8 125.16" stroke="#9E9EA0" stroke-width="2" stroke-linecap="round" stroke-linejoin="round"/>
<path d="M193.1 92.8403L97.12 150.6" stroke="#9E9EA0" stroke-width="2" stroke-linecap="round" stroke-linejoin="round"/>
<path d="M175.62 77.8999L79.08 135.46" stroke="#9E9EA0" stroke-width="2" stroke-linecap="round" stroke-linejoin="round"/>
<path d="M158.12 62.9399L61.02 120.32" stroke="#9E9EA0" stroke-width="2" stroke-linecap="round" stroke-linejoin="round"/>
<path d="M140.62 48L42.98 105.18" stroke="#9E9EA0" stroke-width="2" stroke-linecap="round" stroke-linejoin="round"/>
<path d="M123.14 33.04L24.94 90.02" stroke="#9E9EA0" stroke-width="2" stroke-linecap="round" stroke-linejoin="round"/>
<path d="M105.64 18.1001L6.89999 74.8801" stroke="#9E9EA0" stroke-width="2" stroke-linecap="round" stroke-linejoin="round"/>
<path d="M6.89999 74.8799L97.12 150.6" stroke="#9E9EA0" stroke-width="2" stroke-linecap="round" stroke-linejoin="round"/>
<path d="M26.64 63.52L116.32 139.06" stroke="#9E9EA0" stroke-width="2" stroke-linecap="round" stroke-linejoin="round"/>
<path d="M46.4 52.1802L135.52 127.5" stroke="#9E9EA0" stroke-width="2" stroke-linecap="round" stroke-linejoin="round"/>
<path d="M66.14 40.8203L154.72 115.94" stroke="#9E9EA0" stroke-width="2" stroke-linecap="round" stroke-linejoin="round"/>
<path d="M85.9 29.46L173.9 104.4" stroke="#9E9EA0" stroke-width="2" stroke-linecap="round" stroke-linejoin="round"/>
<path d="M105.64 18.1001L193.1 92.8401" stroke="#9E9EA0" stroke-width="2" stroke-linecap="round" stroke-linejoin="round"/>
</svg>
