<svg width="202" height="202" viewBox="0 0 202 202" fill="none" xmlns="http://www.w3.org/2000/svg">
<path d="M195.545 93.3159V147.148L99.9599 201L10.9979 150.814L11.0403 102.119" stroke="#9E9EA0" stroke-width="2" stroke-linecap="round" stroke-linejoin="round"/>
<path d="M99.8113 144.02L99.9599 201" stroke="#9E9EA0" stroke-width="2" stroke-linecap="round" stroke-linejoin="round"/>
<path d="M147.763 51L96.5848 150.296L1 96.4432L58.8433 1L147.763 51ZM147.763 51L201 97.9345L195.545 97.7274" stroke="#9E9EA0" stroke-width="2" stroke-linecap="round" stroke-linejoin="round"/>
<path d="M30.1234 65.333L61.6665 13.2617" stroke="#9E9EA0" stroke-width="2" stroke-linecap="round" stroke-linejoin="round"/>
<path d="M49.3973 76.2072L80.049 23.5767" stroke="#9E9EA0" stroke-width="2" stroke-linecap="round" stroke-linejoin="round"/>
<path d="M68.6714 87.0604L98.4103 33.9121" stroke="#9E9EA0" stroke-width="2" stroke-linecap="round" stroke-linejoin="round"/>
<path d="M87.9454 97.9137L116.793 44.2476" stroke="#9E9EA0" stroke-width="2" stroke-linecap="round" stroke-linejoin="round"/>
<path d="M107.219 108.788L135.154 54.5835" stroke="#9E9EA0" stroke-width="2" stroke-linecap="round" stroke-linejoin="round"/>
<path d="M135.154 54.5832L61.6665 13.2617" stroke="#9E9EA0" stroke-width="2" stroke-linecap="round" stroke-linejoin="round"/>
<path d="M125.857 72.6443L51.1592 30.6187" stroke="#9E9EA0" stroke-width="2" stroke-linecap="round" stroke-linejoin="round"/>
<path d="M116.538 90.706L40.6307 47.9761" stroke="#9E9EA0" stroke-width="2" stroke-linecap="round" stroke-linejoin="round"/>
<path d="M107.22 108.788L30.1234 65.3335" stroke="#9E9EA0" stroke-width="2" stroke-linecap="round" stroke-linejoin="round"/>
<path d="M115.562 149.219V179.977L136.046 168.44V137.682L115.562 149.219Z" stroke="#9E9EA0" stroke-width="2" stroke-linecap="round" stroke-linejoin="round"/>
<path d="M125.814 143.233L125.581 174.343" stroke="#9E9EA0" stroke-width="2" stroke-linecap="round" stroke-linejoin="round"/>
<path d="M42.2226 128.051V158.829L21.7386 147.292V116.514L42.2226 128.051Z" stroke="#9E9EA0" stroke-width="2" stroke-linecap="round" stroke-linejoin="round"/>
<path d="M31.9913 122.085L32.2248 153.195" stroke="#9E9EA0" stroke-width="2" stroke-linecap="round" stroke-linejoin="round"/>
<path d="M84.6128 151.145V181.903L64.1288 170.366V139.587L84.6128 151.145Z" stroke="#9E9EA0" stroke-width="2" stroke-linecap="round" stroke-linejoin="round"/>
<path d="M74.3815 145.16L74.615 176.27" stroke="#9E9EA0" stroke-width="2" stroke-linecap="round" stroke-linejoin="round"/>
<path d="M183.191 153.858L183.063 107.856L162.813 119.269L162.876 165.437" stroke="#9E9EA0" stroke-width="2" stroke-linecap="round" stroke-linejoin="round"/>
<path d="M140.928 85.6105V108.684L154.704 100.938L154.64 77.8848L140.928 85.6105Z" stroke="#9E9EA0" stroke-width="2" stroke-linecap="round" stroke-linejoin="round"/>
</svg>
